<svg xmlns="http://www.w3.org/2000/svg" id="_圖層_2" data-name="圖層 2" viewBox="0 0 247.5 247.5">
  <defs>
    <style>
      .cls-1 {
        fill: #fff;
      }
    </style>
  </defs>
  <g id="_圖層_1-2" data-name="圖層 1">
    <g>
      <rect class="cls-1" width="247.5" height="247.5"/>
      <path d="M119.74,139.9c-21.21,0-21.84,31.78,0,31.78s21.21-31.78,0-31.78Zm0,27.59c-15.61-.27-15.61-23.13,0-23.4,15.61,.27,15.61,23.13,0,23.4Zm50.98-70.63c-1.23,0-2.21,.97-2.21,2.18v15.84c-2.53-3.12-6.4-5.34-11.74-5.34-10.59,0-16.06,7.95-16.14,15.9,.08,7.95,5.54,15.9,16.14,15.9,5.35,0,9.22-2.21,11.74-5.34v2.64c0,1.19,.99,2.18,2.21,2.18s2.21-.97,2.21-2.18v-39.61c0-1.19-.99-2.18-2.21-2.18Zm-13.96,40.29c-7.81-.14-11.71-5.93-11.71-11.71s3.9-11.57,11.71-11.71c7.81,.14,11.71,5.93,11.71,11.71s-3.9,11.57-11.71,11.71Zm57.32-64.03c-1.23,0-2.21,.97-2.21,2.18v2.58c-2.53-3.09-6.39-5.27-11.71-5.27-10.59,0-16.06,7.95-16.14,15.9,.08,7.95,5.54,15.9,16.14,15.9,5.32,0,9.18-2.18,11.71-5.29v2.63c0,1.21,.99,2.18,2.21,2.18s2.21-.97,2.21-2.18v-26.43c0-1.21-.99-2.18-2.21-2.18v-.02Zm-13.92,27.08c-7.81-.14-11.71-5.93-11.71-11.71s3.9-11.57,11.71-11.71c7.81,.14,11.71,5.93,11.71,11.71s-3.9,11.57-11.71,11.71Zm-129.65,40.15c-6.74,0-11.41,3.22-13.92,7.6-2.52-4.38-7.19-7.6-13.92-7.6-4.89,0-9.11,2.07-11.71,5.56v-2.66c0-1.21-.99-2.18-2.21-2.18s-2.21,.99-2.21,2.18v26.24c0,1.21,.99,2.18,2.21,2.18s2.21-.97,2.21-2.18c.08-2.55-.19-13.06,.21-16.84,.13-.78,.3-1.32,.4-1.61,1.69-3.89,5.61-6.36,11.1-6.52,7.81,.14,11.71,5.91,11.71,11.69v13.26c0,1.21,.99,2.18,2.21,2.18s2.21-.97,2.21-2.18v-13.26c0-5.78,3.9-11.57,11.71-11.71,5.07,0,8.4,2.37,10.16,5.58,1,1.94,1.53,4.44,1.55,7.49v11.9c0,1.21,1,2.18,2.21,2.18s2.21-.97,2.21-2.18v-13.26c0-9.32-6.18-15.72-16.14-15.9v.03Z"/>
    </g>
  </g>
</svg>